<svg width="298" height="21" viewBox="0 0 298 21" fill="none" xmlns="http://www.w3.org/2000/svg">
<line y1="10" x2="76" y2="10" stroke="#B3B3B3"/>
<path d="M97.4965 16.14C96.8058 16.14 96.1665 16.014 95.5785 15.762C94.9998 15.51 94.4911 15.16 94.0525 14.712C93.6231 14.2547 93.2871 13.7227 93.0445 13.116C92.8111 12.5 92.6945 11.828 92.6945 11.1C92.6945 10.372 92.8111 9.70467 93.0445 9.098C93.2871 8.482 93.6231 7.95 94.0525 7.502C94.4911 7.04467 94.9998 6.69 95.5785 6.438C96.1665 6.186 96.8058 6.06 97.4965 6.06C98.1871 6.06 98.8218 6.186 99.4005 6.438C99.9885 6.69 100.497 7.04467 100.926 7.502C101.365 7.95933 101.701 8.496 101.934 9.112C102.177 9.71867 102.298 10.3813 102.298 11.1C102.298 11.8187 102.177 12.486 101.934 13.102C101.701 13.7087 101.365 14.2407 100.926 14.698C100.497 15.1553 99.9885 15.51 99.4005 15.762C98.8218 16.014 98.1871 16.14 97.4965 16.14ZM97.4965 14.67C97.9725 14.67 98.4065 14.5813 98.7985 14.404C99.1998 14.2267 99.5451 13.9793 99.8345 13.662C100.124 13.3353 100.348 12.9573 100.506 12.528C100.674 12.0893 100.758 11.6133 100.758 11.1C100.758 10.5867 100.674 10.1153 100.506 9.686C100.348 9.24733 100.124 8.86933 99.8345 8.552C99.5451 8.22533 99.1998 7.97333 98.7985 7.796C98.4065 7.61867 97.9725 7.53 97.4965 7.53C97.0205 7.53 96.5818 7.61867 96.1805 7.796C95.7885 7.97333 95.4431 8.22067 95.1445 8.538C94.8551 8.85533 94.6311 9.23333 94.4725 9.672C94.3138 10.1013 94.2345 10.5773 94.2345 11.1C94.2345 11.6133 94.3138 12.0893 94.4725 12.528C94.6311 12.9667 94.8551 13.3447 95.1445 13.662C95.4431 13.9793 95.7885 14.2267 96.1805 14.404C96.5818 14.5813 97.0205 14.67 97.4965 14.67ZM103.982 16V8.65H105.438V10.96L105.298 10.4C105.4 10.0453 105.573 9.72333 105.816 9.434C106.068 9.14467 106.352 8.916 106.67 8.748C106.996 8.58 107.332 8.496 107.678 8.496C107.836 8.496 107.986 8.51 108.126 8.538C108.275 8.566 108.392 8.59867 108.476 8.636L108.098 10.204C107.986 10.1573 107.86 10.12 107.72 10.092C107.589 10.0547 107.458 10.036 107.328 10.036C107.076 10.036 106.833 10.0873 106.6 10.19C106.376 10.2833 106.175 10.4187 105.998 10.596C105.83 10.764 105.694 10.9647 105.592 11.198C105.489 11.422 105.438 11.6693 105.438 11.94V16H103.982ZM117.892 16.14C117.211 16.14 116.585 16.0187 116.016 15.776C115.447 15.5333 114.952 15.188 114.532 14.74C114.112 14.2827 113.785 13.746 113.552 13.13C113.328 12.514 113.216 11.8373 113.216 11.1C113.216 10.4 113.337 9.75133 113.58 9.154C113.832 8.54733 114.177 8.01533 114.616 7.558C115.055 7.10067 115.563 6.746 116.142 6.494C116.721 6.242 117.346 6.116 118.018 6.116C118.494 6.116 118.956 6.19067 119.404 6.34C119.861 6.48 120.272 6.68067 120.636 6.942C121.009 7.194 121.313 7.48333 121.546 7.81L120.538 8.86C120.267 8.58933 119.992 8.36533 119.712 8.188C119.441 8.00133 119.161 7.86133 118.872 7.768C118.592 7.67467 118.307 7.628 118.018 7.628C117.561 7.628 117.131 7.71667 116.73 7.894C116.338 8.062 115.993 8.3 115.694 8.608C115.405 8.916 115.176 9.28467 115.008 9.714C114.84 10.134 114.756 10.596 114.756 11.1C114.756 11.632 114.835 12.1173 114.994 12.556C115.162 12.9853 115.395 13.354 115.694 13.662C115.993 13.97 116.347 14.208 116.758 14.376C117.178 14.5347 117.64 14.614 118.144 14.614C118.452 14.614 118.755 14.572 119.054 14.488C119.353 14.404 119.633 14.2827 119.894 14.124C120.155 13.9653 120.393 13.7787 120.608 13.564L121.364 14.796C121.149 15.048 120.855 15.2767 120.482 15.482C120.118 15.6873 119.707 15.8507 119.25 15.972C118.802 16.084 118.349 16.14 117.892 16.14ZM126.358 16.14C125.639 16.14 124.995 15.9767 124.426 15.65C123.866 15.314 123.423 14.8613 123.096 14.292C122.769 13.7133 122.606 13.0553 122.606 12.318C122.606 11.5807 122.769 10.9273 123.096 10.358C123.423 9.77933 123.866 9.32667 124.426 9C124.995 8.664 125.639 8.496 126.358 8.496C127.067 8.496 127.702 8.664 128.262 9C128.831 9.32667 129.279 9.77933 129.606 10.358C129.933 10.9273 130.096 11.5807 130.096 12.318C130.096 13.0553 129.933 13.7133 129.606 14.292C129.279 14.8613 128.831 15.314 128.262 15.65C127.702 15.9767 127.067 16.14 126.358 16.14ZM126.358 14.824C126.797 14.824 127.189 14.7167 127.534 14.502C127.879 14.278 128.15 13.9793 128.346 13.606C128.542 13.2233 128.635 12.794 128.626 12.318C128.635 11.8327 128.542 11.4033 128.346 11.03C128.15 10.6473 127.879 10.3487 127.534 10.134C127.189 9.91933 126.797 9.812 126.358 9.812C125.919 9.812 125.523 9.924 125.168 10.148C124.823 10.3627 124.552 10.6613 124.356 11.044C124.16 11.4173 124.067 11.842 124.076 12.318C124.067 12.794 124.16 13.2233 124.356 13.606C124.552 13.9793 124.823 14.278 125.168 14.502C125.523 14.7167 125.919 14.824 126.358 14.824ZM131.667 16V8.65H133.109V10.162L132.857 10.33C132.951 10.0033 133.133 9.70467 133.403 9.434C133.674 9.154 133.996 8.93 134.369 8.762C134.743 8.58467 135.125 8.496 135.517 8.496C136.077 8.496 136.544 8.608 136.917 8.832C137.291 9.04667 137.571 9.378 137.757 9.826C137.944 10.274 138.037 10.8387 138.037 11.52V16H136.595V11.618C136.595 11.198 136.539 10.8527 136.427 10.582C136.315 10.302 136.143 10.1013 135.909 9.98C135.676 9.84933 135.387 9.79333 135.041 9.812C134.761 9.812 134.505 9.85867 134.271 9.952C134.038 10.036 133.833 10.1573 133.655 10.316C133.487 10.4747 133.352 10.6613 133.249 10.876C133.156 11.0813 133.109 11.3053 133.109 11.548V16H132.395C132.274 16 132.153 16 132.031 16C131.91 16 131.789 16 131.667 16ZM140.903 16V6.774H142.345V16H140.903ZM139.377 10.05V8.65H144.053V10.05H139.377ZM145.604 16V8.65H147.046V16H145.604ZM146.304 7.026C145.996 7.026 145.758 6.94667 145.59 6.788C145.422 6.62933 145.338 6.40533 145.338 6.116C145.338 5.84533 145.422 5.626 145.59 5.458C145.768 5.29 146.006 5.206 146.304 5.206C146.612 5.206 146.85 5.28533 147.018 5.444C147.186 5.60267 147.27 5.82667 147.27 6.116C147.27 6.38667 147.182 6.606 147.004 6.774C146.836 6.942 146.603 7.026 146.304 7.026ZM149.263 16V8.65H150.705V10.162L150.453 10.33C150.546 10.0033 150.728 9.70467 150.999 9.434C151.27 9.154 151.592 8.93 151.965 8.762C152.338 8.58467 152.721 8.496 153.113 8.496C153.673 8.496 154.14 8.608 154.513 8.832C154.886 9.04667 155.166 9.378 155.353 9.826C155.54 10.274 155.633 10.8387 155.633 11.52V16H154.191V11.618C154.191 11.198 154.135 10.8527 154.023 10.582C153.911 10.302 153.738 10.1013 153.505 9.98C153.272 9.84933 152.982 9.79333 152.637 9.812C152.357 9.812 152.1 9.85867 151.867 9.952C151.634 10.036 151.428 10.1573 151.251 10.316C151.083 10.4747 150.948 10.6613 150.845 10.876C150.752 11.0813 150.705 11.3053 150.705 11.548V16H149.991C149.87 16 149.748 16 149.627 16C149.506 16 149.384 16 149.263 16ZM160.165 16.14C159.642 16.14 159.185 16.0187 158.793 15.776C158.41 15.5333 158.112 15.1927 157.897 14.754C157.692 14.3153 157.589 13.7927 157.589 13.186V8.65H159.031V12.794C159.031 13.2233 159.096 13.5967 159.227 13.914C159.367 14.222 159.563 14.46 159.815 14.628C160.076 14.796 160.389 14.88 160.753 14.88C161.024 14.88 161.271 14.838 161.495 14.754C161.719 14.6607 161.91 14.5347 162.069 14.376C162.237 14.2173 162.368 14.026 162.461 13.802C162.554 13.578 162.601 13.3353 162.601 13.074V8.65H164.043V16H162.601V14.46L162.853 14.292C162.741 14.6373 162.55 14.95 162.279 15.23C162.018 15.51 161.705 15.734 161.341 15.902C160.977 16.0607 160.585 16.14 160.165 16.14ZM169.496 16.14C168.74 16.14 168.068 15.9813 167.48 15.664C166.901 15.3373 166.444 14.894 166.108 14.334C165.781 13.774 165.618 13.13 165.618 12.402C165.618 11.8233 165.711 11.296 165.898 10.82C166.084 10.344 166.341 9.93333 166.668 9.588C167.004 9.23333 167.4 8.96267 167.858 8.776C168.324 8.58 168.828 8.482 169.37 8.482C169.846 8.482 170.289 8.57533 170.7 8.762C171.11 8.93933 171.465 9.18667 171.764 9.504C172.072 9.82133 172.305 10.1993 172.464 10.638C172.632 11.0673 172.711 11.5387 172.702 12.052L172.688 12.668H166.682L166.36 11.52H171.442L171.232 11.758V11.422C171.204 11.114 171.101 10.8387 170.924 10.596C170.746 10.3533 170.522 10.162 170.252 10.022C169.981 9.882 169.687 9.812 169.37 9.812C168.866 9.812 168.441 9.91 168.096 10.106C167.75 10.2927 167.489 10.5727 167.312 10.946C167.134 11.31 167.046 11.7627 167.046 12.304C167.046 12.8173 167.153 13.2653 167.368 13.648C167.582 14.0213 167.886 14.3107 168.278 14.516C168.67 14.7213 169.122 14.824 169.636 14.824C170 14.824 170.336 14.7633 170.644 14.642C170.961 14.5207 171.302 14.3013 171.666 13.984L172.394 15.006C172.17 15.23 171.894 15.426 171.568 15.594C171.25 15.762 170.91 15.8973 170.546 16C170.191 16.0933 169.841 16.14 169.496 16.14ZM179.999 16L177.493 8.65L178.949 8.636L180.741 14.138L180.419 14.11L182.365 9.812H183.233L185.193 14.124L184.815 14.152L186.621 8.65H188.077L185.599 16H184.605L182.561 11.324L182.883 11.366L180.979 16H179.999ZM189.628 16V8.65H191.07V16H189.628ZM190.328 7.026C190.02 7.026 189.782 6.94667 189.614 6.788C189.446 6.62933 189.362 6.40533 189.362 6.116C189.362 5.84533 189.446 5.626 189.614 5.458C189.791 5.29 190.029 5.206 190.328 5.206C190.636 5.206 190.874 5.28533 191.042 5.444C191.21 5.60267 191.294 5.82667 191.294 6.116C191.294 6.38667 191.205 6.606 191.028 6.774C190.86 6.942 190.627 7.026 190.328 7.026ZM194.196 16V6.774H195.638V16H194.196ZM192.67 10.05V8.65H197.346V10.05H192.67ZM198.659 16V5.64H200.101V10.162L199.849 10.33C199.943 10.0033 200.125 9.70467 200.395 9.434C200.666 9.154 200.988 8.93 201.361 8.762C201.735 8.58467 202.117 8.496 202.509 8.496C203.069 8.496 203.536 8.608 203.909 8.832C204.283 9.04667 204.563 9.378 204.749 9.826C204.936 10.274 205.029 10.8387 205.029 11.52V16H203.587V11.618C203.587 11.198 203.531 10.8527 203.419 10.582C203.307 10.302 203.135 10.1013 202.901 9.98C202.668 9.84933 202.379 9.79333 202.033 9.812C201.753 9.812 201.497 9.85867 201.263 9.952C201.03 10.036 200.825 10.1573 200.647 10.316C200.479 10.4747 200.344 10.6613 200.241 10.876C200.148 11.0813 200.101 11.3053 200.101 11.548V16H199.387C199.266 16 199.145 16 199.023 16C198.902 16 198.781 16 198.659 16Z" fill="#B3B3B3"/>
<line x1="222" y1="10" x2="298" y2="10" stroke="#B3B3B3"/>
</svg>
