<svg width="32" height="31" viewBox="0 0 32 31" fill="none" xmlns="http://www.w3.org/2000/svg">
<rect x="0.882812" y="0.209961" width="30.3466" height="30.2555" rx="15.1278" fill="#CAFF33"/>
<path fill-rule="evenodd" clip-rule="evenodd" d="M18.7092 8.94263C18.4756 9.19278 18.4902 9.58386 18.7417 9.81614L20.4823 11.4235L13.3639 11.4235C13.0207 11.4235 12.7424 11.7002 12.7424 12.0416C12.7424 12.3829 13.0207 12.6597 13.3639 12.6597L20.4823 12.6597L18.7417 14.267C18.4902 14.4993 18.4756 14.8904 18.7092 15.1405C18.9427 15.3907 19.336 15.4052 19.5875 15.1729L22.4879 12.4945C22.6145 12.3776 22.6865 12.2135 22.6865 12.0416C22.6865 11.8697 22.6145 11.7056 22.4879 11.5887L19.5875 8.91028C19.336 8.678 18.9427 8.69248 18.7092 8.94263ZM13.405 15.5356C13.1715 15.2854 12.7782 15.2709 12.5267 15.5032L9.62633 18.1816C9.49969 18.2985 9.42773 18.4627 9.42773 18.6345C9.42773 18.8064 9.49969 18.9705 9.62633 19.0875L12.5267 21.7658C12.7782 21.9981 13.1715 21.9836 13.405 21.7335C13.6386 21.4833 13.624 21.0923 13.3725 20.86L11.6319 19.2526H18.7503C19.0935 19.2526 19.3718 18.9759 19.3718 18.6345C19.3718 18.2932 19.0935 18.0164 18.7503 18.0164H11.6319L13.3725 16.4091C13.624 16.1768 13.6386 15.7857 13.405 15.5356Z" fill="#1C1C1C"/>
</svg>
