<svg width="56" height="40" viewBox="0 0 56 40" fill="none" xmlns="http://www.w3.org/2000/svg">
<rect width="56" height="40" rx="20" fill="#CAFF33"/>
<path fill-rule="evenodd" clip-rule="evenodd" d="M17.5 13.875C17.5 13.3918 17.8918 13 18.375 13H37.625C38.1082 13 38.5 13.3918 38.5 13.875C38.5 14.3582 38.1082 14.75 37.625 14.75H18.375C17.8918 14.75 17.5 14.3582 17.5 13.875ZM17.5 20C17.5 19.5168 17.8918 19.125 18.375 19.125H37.625C38.1082 19.125 38.5 19.5168 38.5 20C38.5 20.4832 38.1082 20.875 37.625 20.875H18.375C17.8918 20.875 17.5 20.4832 17.5 20ZM27.125 26.125C27.125 25.6418 27.5168 25.25 28 25.25H37.625C38.1082 25.25 38.5 25.6418 38.5 26.125C38.5 26.6082 38.1082 27 37.625 27H28C27.5168 27 27.125 26.6082 27.125 26.125Z" fill="#333333"/>
</svg>
